# xmcd
#
# Track frame offsets:
# 150
# 13650
# 29532
# 47080
# 60330
# 68335
# 73727
# 88165
# 110157
# 113272
# 133604
# 146846
# 153016
# 163511
# 178851
# 203546
# 213854
#
# Disc length: 3066 seconds
#
# Revision: 0
# Processed by: cddbd v1.4PL0 Copyright (c) Steve Scherf et al.
# Submitted via: Axialis_AX_CDPlayer 2.6
#
DISCID=e40bf811
DTITLE=Lead Belly - Last Sessions Disk 3
DYEAR=1900
DGENRE=
TTITLE0=Easy Rider
TTITLE1=Cry For Me
TTITLE2=Ain't Going To Drink No More (De Kalb Blues)
TTITLE3=Birmingham Jail
TTITLE4=Old Riley
TTITLE5=Julie Ann Johnson
TTITLE6=It's Tight Like That
TTITLE7=4, 5 and 9
TTITLE8=Good Morning Babe, How Do You Do?
TTITLE9=Jail House Blues
TTITLE10=Well, You Know I Had To Do It
TTITLE11=Irene
TTITLE12=25 Cent Dude
TTITLE13=How Come You Do Me Like You Do?
TTITLE14=Hello Central
TTITLE15=Hesitation Blues
TTITLE16=I'll Be Down On The Last Bread Wagon
EXTD=
EXTT0=
EXTT1=
EXTT2=
EXTT3=
EXTT4=
EXTT5=
EXTT6=
EXTT7=
EXTT8=
EXTT9=
EXTT10=
EXTT11=
EXTT12=
EXTT13=
EXTT14=
EXTT15=
EXTT16=
PLAYORDER=
